<svg xmlns="http://www.w3.org/2000/svg" width="300" height="350" viewBox="0 0 109.64109 123.35029">
   <defs>
      <linearGradient id="Gradient" y1="0.44999999" spreadMethod="reflect">
      <stop offset="0%" stop-color="#5f86f2" stop-opacity="1">
            <animate attributeName="stop-color" values="#5f86f2; #a65ff2; #f25fd0; #f25f61; #f2cb5f; #abf25f; #5ff281; #5ff2f0; #5f86f2" dur="4s" repeatCount="indefinite" />
      </stop>
      <stop offset="100%" stop-color="#5f86f2" stop-opacity="1">
            <animate attributeName="stop-color" values="#5f86f2; #5ff2f0; #5ff281; #abf25f; #f2cb5f; #f25f61; #f25fd0; #a65ff2; #5f86f2" dur="4s" repeatCount="indefinite" />
      </stop>
      </linearGradient>
   </defs>
  <g id="layer1" transform="translate(14.359702,14.379029)">
    <g
       id="g869" transform="translate(-108.69747,0.54759428)">
      <g
         id="g846" transform="translate(-10.951888,-2.1903771)">
        <rect
           style="fill:#ececec;fill-opacity:1;fill-rule:evenodd;stroke-width:0.531812;stroke-linejoin:round;stroke-opacity:0"
           id="rect837" width="96.650391" height="110.34024" x="118.28036" y="0.27379715" />
        <rect
           style="fill:#100e17;fill-opacity:1;fill-rule:evenodd;stroke-width:0.534404;stroke-linejoin:round;stroke-opacity:0"
           id="rect839" width="84.877106" height="83.234329" x="124.3039" y="8.2139139" />
      </g>
      <g
         id="g861"
         transform="matrix(0.07153529,0,0,0.08082065,94.337768,-16.65078)"
         style="fill: url(#Gradient);fill-opacity:1">
        <path
           style="fill: url(#Gradient);fill-opacity:1"
           d="M 486.251,65.835 467.499,47.083 C 433.166,12.75 377.502,12.75 343.169,47.082 c 0,0 0,0 -10e-4,10e-4 L 103.552,286.699 c -11.629,11.683 -18.177,27.484 -18.219,43.968 v 42.667 c 0,17.673 14.327,32 32,32 H 160 c 16.483,-0.047 32.283,-6.593 43.968,-18.219 L 380.885,210.198 c 4.237,-4.093 4.354,-10.845 0.262,-15.083 -4.093,-4.237 -10.845,-4.354 -15.083,-0.262 -0.089,0.086 -0.176,0.173 -0.262,0.262 L 188.885,372.032 C 181.208,379.669 170.828,383.969 160,384 h -42.667 c -5.891,0 -10.667,-4.776 -10.667,-10.667 v -42.667 c 0.029,-10.829 4.33,-21.209 11.968,-28.885 L 358.251,62.166 c 26.366,-25.112 67.8,-25.112 94.165,0 l 18.752,18.752 c 25.993,26.007 25.993,68.158 0,94.165 l -267.2,267.2 c -17.28,17.378 -40.795,27.118 -65.301,27.051 H 53.333 c -17.673,0 -32,-14.327 -32,-32 V 352 c 0.068,-24.48 9.788,-47.944 27.051,-65.301 L 252.885,82.198 c 4.237,-4.093 4.355,-10.845 0.262,-15.083 -4.093,-4.237 -10.845,-4.355 -15.083,-0.262 -0.089,0.086 -0.176,0.173 -0.262,0.262 L 33.301,271.616 C 12.052,292.982 0.086,321.867 0,352 v 85.333 c 0,29.455 23.878,53.333 53.333,53.333 h 85.333 c 30.164,0.066 59.104,-11.923 80.384,-33.301 l 267.2,-267.2 c 34.334,-34.332 34.334,-89.996 10e-4,-124.33 0,0 0,0 0,0 z"
           id="path848" />
        <path
           d="M 138.667,490.667 H 53.333 C 23.878,490.667 0,466.789 0,437.334 V 352 C 0.086,321.866 12.052,292.982 33.301,271.616 L 237.803,67.115 c 4.093,-4.237 10.845,-4.355 15.083,-0.262 4.238,4.093 4.355,10.845 0.262,15.083 -0.086,0.089 -0.173,0.176 -0.262,0.262 L 48.384,286.699 C 31.122,304.056 21.402,327.521 21.333,352 v 85.333 c 0,17.673 14.327,32 32,32 h 85.333 c 24.507,0.068 48.021,-9.673 65.301,-27.051 l 267.2,-267.2 c 25.993,-26.007 25.993,-68.158 0,-94.165 L 452.415,62.165 c -26.366,-25.112 -67.8,-25.112 -94.165,0 L 118.635,301.782 c -7.638,7.676 -11.939,18.056 -11.968,28.885 v 42.667 c 0,5.891 4.776,10.667 10.667,10.667 H 160 c 10.828,-0.031 21.208,-4.332 28.885,-11.968 L 365.802,195.116 c 4.093,-4.237 10.845,-4.355 15.083,-0.262 4.237,4.093 4.354,10.845 0.262,15.083 -0.086,0.089 -0.173,0.176 -0.262,0.262 L 203.968,387.115 C 192.283,398.74 176.483,405.287 160,405.334 h -42.667 c -17.673,0 -32,-14.327 -32,-32 v -42.667 c 0.042,-16.484 6.589,-32.285 18.219,-43.968 L 343.168,47.083 c 34.333,-34.333 89.997,-34.333 124.33,-10e-4 0,0 0,0 0.001,10e-4 l 18.752,18.752 c 34.333,34.333 34.333,89.997 0.001,124.33 0,0 0,0 -0.001,0.001 l -267.2,267.2 c -21.28,21.378 -50.22,33.368 -80.384,33.301 z"
           id="path850"
           style="fill: url(#Gradient);fill-opacity:1" />
      </g>
    </g>
  </g>
</svg>
